<svg xmlns="http://www.w3.org/2000/svg" viewBox="0 0 192 192" width="192" height="192">
  <rect width="192" height="192" rx="32" fill="#18181b"/>
  <!-- Squat figure silhouette -->
  <g transform="translate(96,96)" fill="none" stroke="#a78bfa" stroke-width="5" stroke-linecap="round" stroke-linejoin="round">
    <!-- Head -->
    <circle cx="0" cy="-38" r="10" fill="#a78bfa"/>
    <!-- Torso (leaning slightly forward like a squat) -->
    <line x1="0" y1="-28" x2="-4" y2="0"/>
    <!-- Upper arms holding barbell -->
    <line x1="-4" y1="-20" x2="-24" y2="-24"/>
    <line x1="-4" y1="-20" x2="16" y2="-24"/>
    <!-- Barbell -->
    <line x1="-32" y1="-24" x2="24" y2="-24" stroke-width="4"/>
    <rect x="-38" y="-30" width="8" height="12" rx="2" fill="#a78bfa"/>
    <rect x="22" y="-30" width="8" height="12" rx="2" fill="#a78bfa"/>
    <!-- Hips -->
    <line x1="-4" y1="0" x2="-16" y2="4"/>
    <line x1="-4" y1="0" x2="10" y2="4"/>
    <!-- Upper legs (thighs parallel - squat position) -->
    <line x1="-16" y1="4" x2="-24" y2="16"/>
    <line x1="10" y1="4" x2="18" y2="16"/>
    <!-- Lower legs -->
    <line x1="-24" y1="16" x2="-20" y2="40"/>
    <line x1="18" y1="16" x2="14" y2="40"/>
    <!-- Feet -->
    <line x1="-20" y1="40" x2="-28" y2="42"/>
    <line x1="14" y1="40" x2="22" y2="42"/>
  </g>
  <!-- "SS" text label -->
  <text x="96" y="170" text-anchor="middle" font-family="system-ui, sans-serif" font-size="20" font-weight="700" fill="#a78bfa">SquatSense</text>
</svg>
