<svg xmlns="http://www.w3.org/2000/svg" viewBox="0 0 512 512" width="512" height="512">
  <rect width="512" height="512" rx="80" fill="#18181b"/>
  <!-- Shield -->
  <path d="M256 52 L428 132 L428 296 Q428 400 256 468 Q84 400 84 296 L84 132 Z" fill="#1c1c20" stroke="#fb923c" stroke-width="5" opacity="0.9"/>
  <path d="M256 72 L412 145 L412 288 Q412 382 256 445 Q100 382 100 288 L100 145 Z" fill="none" stroke="#fb923c" stroke-width="1" opacity="0.25"/>
  <!-- Pose figure in cyan -->
  <g transform="translate(256,268)" fill="none" stroke="#06b6d4" stroke-width="8" stroke-linecap="round" stroke-linejoin="round">
    <circle cx="0" cy="-85" r="18" fill="#06b6d4" opacity="0.8"/>
    <line x1="0" y1="-67" x2="-5" y2="-5"/>
    <line x1="-5" y1="-48" x2="-48" y2="-58"/>
    <line x1="-5" y1="-48" x2="38" y2="-58"/>
    <line x1="-5" y1="-5" x2="-32" y2="5"/>
    <line x1="-5" y1="-5" x2="22" y2="5"/>
    <line x1="-32" y1="5" x2="-48" y2="38"/>
    <line x1="22" y1="5" x2="38" y2="38"/>
    <line x1="-48" y1="38" x2="-40" y2="80"/>
    <line x1="38" y1="38" x2="30" y2="80"/>
    <line x1="-40" y1="80" x2="-55" y2="85"/>
    <line x1="30" y1="80" x2="45" y2="85"/>
  </g>
  <!-- Orange arc -->
  <path d="M172 340 Q256 388 340 340" fill="none" stroke="#fb923c" stroke-width="8" stroke-linecap="round" opacity="0.8"/>
  <!-- F³ text -->
  <text x="256" y="140" text-anchor="middle" font-family="system-ui, -apple-system, sans-serif" font-size="80" font-weight="800" fill="#fb923c" letter-spacing="-2">F<tspan font-size="48" dy="-20">3</tspan></text>
</svg>
