<svg xmlns="http://www.w3.org/2000/svg" viewBox="0 0 640 200" width="640" height="200">
  <rect width="640" height="200" rx="24" fill="#18181b"/>
  <g transform="translate(60,100)" fill="none" stroke="#a78bfa" stroke-width="4.5" stroke-linecap="round" stroke-linejoin="round">
    <circle cx="0" cy="-32" r="8.5" fill="#a78bfa"/>
    <line x1="0" y1="-23" x2="-3" y2="0"/>
    <line x1="-3" y1="-16" x2="-20" y2="-20"/>
    <line x1="-3" y1="-16" x2="14" y2="-20"/>
    <line x1="-27" y1="-20" x2="20" y2="-20" stroke-width="3.5"/>
    <rect x="-32" y="-25" width="7" height="10" rx="2" fill="#a78bfa"/>
    <rect x="19" y="-25" width="7" height="10" rx="2" fill="#a78bfa"/>
    <line x1="-3" y1="0" x2="-13" y2="3"/>
    <line x1="-3" y1="0" x2="8" y2="3"/>
    <line x1="-13" y1="3" x2="-20" y2="14"/>
    <line x1="8" y1="3" x2="15" y2="14"/>
    <line x1="-20" y1="14" x2="-17" y2="34"/>
    <line x1="15" y1="14" x2="12" y2="34"/>
    <line x1="-17" y1="34" x2="-24" y2="36"/>
    <line x1="12" y1="34" x2="19" y2="36"/>
  </g>
  <text x="120" y="115" font-family="-apple-system, BlinkMacSystemFont, 'Segoe UI', Roboto, Helvetica, Arial, sans-serif" font-size="56" font-weight="700" fill="#fafafa" letter-spacing="-1">
    Squat<tspan fill="#a78bfa">Sense</tspan><tspan fill="#71717a" font-size="42" font-weight="500">.ai</tspan>
  </text>
</svg>
