<svg xmlns="http://www.w3.org/2000/svg" viewBox="0 0 640 200" width="640" height="200">
  <rect width="640" height="200" rx="24" fill="#18181b"/>
  <!-- Shield icon -->
  <g transform="translate(20,10) scale(0.95)">
    <!-- Shield -->
    <path d="M96 20 L150 45 L150 100 Q150 135 96 155 Q42 135 42 100 L42 45 Z" fill="#1c1c20" stroke="#fb923c" stroke-width="2" opacity="0.9"/>
    <!-- Pose figure in cyan -->
    <g transform="translate(96,88)" fill="none" stroke="#06b6d4" stroke-width="2.5" stroke-linecap="round" stroke-linejoin="round">
      <circle cx="0" cy="-28" r="6" fill="#06b6d4" opacity="0.8"/>
      <line x1="0" y1="-22" x2="-2" y2="-2"/>
      <line x1="-2" y1="-16" x2="-15" y2="-19"/>
      <line x1="-2" y1="-16" x2="11" y2="-19"/>
      <line x1="-2" y1="-2" x2="-10" y2="2"/>
      <line x1="-2" y1="-2" x2="6" y2="2"/>
      <line x1="-10" y1="2" x2="-15" y2="12"/>
      <line x1="6" y1="2" x2="11" y2="12"/>
      <line x1="-15" y1="12" x2="-12" y2="26"/>
      <line x1="11" y1="12" x2="8" y2="26"/>
      <line x1="-12" y1="26" x2="-17" y2="28"/>
      <line x1="8" y1="26" x2="13" y2="28"/>
    </g>
    <!-- Orange arc -->
    <path d="M65 115 Q96 130 127 115" fill="none" stroke="#fb923c" stroke-width="3" stroke-linecap="round" opacity="0.8"/>
    <!-- F³ -->
    <text x="96" y="48" text-anchor="middle" font-family="system-ui, -apple-system, sans-serif" font-size="26" font-weight="800" fill="#fb923c" letter-spacing="-1">F<tspan font-size="15" dy="-7">3</tspan></text>
  </g>
  <!-- Brand text -->
  <text x="210" y="108" font-family="-apple-system, BlinkMacSystemFont, 'Segoe UI', Roboto, Helvetica, Arial, sans-serif" font-size="50" font-weight="700" fill="#fafafa" letter-spacing="-1">
    FreeForm<tspan fill="#fb923c"> Fitness</tspan>
  </text>
  <!-- Tagline -->
  <text x="210" y="140" font-family="-apple-system, BlinkMacSystemFont, 'Segoe UI', Roboto, Helvetica, Arial, sans-serif" font-size="16" font-weight="400" fill="#a1a1aa" letter-spacing="0.5" font-style="italic">
    Measure the Movement. Master the Form.
  </text>
</svg>
